<?xml version="1.0" encoding="iso-8859-1"?>
<!-- Generator: Adobe Illustrator 19.0.0, SVG Export Plug-In . SVG Version: 6.00 Build 0)  -->
<svg version="1.1" id="Capa_1" xmlns="http://www.w3.org/2000/svg" xmlns:xlink="http://www.w3.org/1999/xlink" x="0px" y="0px"
	 viewBox="0 0 512 512" style="enable-background:new 0 0 512 512;" xml:space="preserve">
<path style="fill:#499421;" d="M343.771,90.809l-19.968,52.054H188.205l-19.968-52.054c-2.703-7.03-2.076-14.892,1.685-21.407
	l32.856-56.925C207.239,4.758,215.471,0,224.381,0h63.235c8.91,0,17.142,4.758,21.603,12.466l3.669,6.351l29.197,50.584
	C345.846,75.917,346.473,83.779,343.771,90.809z"/>
<g>
	<path style="fill:#96C133;" d="M343.771,90.809l-19.968,52.054H210.795l-12.754-33.247c-2.703-7.019-2.076-14.892,1.685-21.407
		l32.856-56.925c4.46-7.718,12.692-12.466,21.603-12.466h58.703l29.197,50.584C345.846,75.917,346.473,83.779,343.771,90.809z"/>
	<path style="fill:#96C133;" d="M207.28,403.285l-97.642,85.964c-9.434,8.306-23.815,7.392-32.122-2.041L36.966,441.16
		c-8.308-9.435-7.394-23.819,2.042-32.126l9.028-7.948l88.61-78.024l53.77,61.077L207.28,403.285z"/>
</g>
<path style="fill:#499421;" d="M190.415,384.139l-68.451,60.265c-11.133,9.802-28.105,8.723-37.908-2.41l-36.02-40.908l88.61-78.024
	L190.415,384.139z"/>
<path style="fill:#96C133;" d="M304.727,403.282l70.632-80.218l97.638,85.969c9.434,8.307,10.348,22.69,2.041,32.124l-40.549,46.053
	c-8.307,9.434-22.69,10.348-32.124,2.041L304.727,403.282z"/>
<g>
	<path style="fill:#499421;" d="M304.727,210.237l70.632,80.218l97.638-85.969c9.434-8.307,10.348-22.69,2.041-32.124
		l-40.549-46.053c-8.307-9.434-22.69-10.348-32.124-2.041L304.727,210.237z"/>
	<path style="fill:#499421;" d="M207.28,210.239l-40.605,46.114l-30.03,34.1l-97.64-85.963c-9.435-8.307-10.35-22.69-2.042-32.124
		l40.551-46.056c8.307-9.435,22.691-10.349,32.125-2.041l5.301,4.668L207.28,210.239z"/>
</g>
<path style="fill:#96C133;" d="M207.28,210.239l-40.605,46.114l-70.43-62.004c-12.1-10.652-13.274-29.098-2.622-41.198
	l21.317-24.214L207.28,210.239z"/>
<path style="fill:#499421;" d="M321.591,384.139l68.451,60.265c11.133,9.802,28.105,8.723,37.908-2.41l36.02-40.909l-88.61-78.024
	L321.591,384.139z"/>
<path style="fill:#96C133;" d="M304.727,210.239l40.605,46.114l70.43-62.004c12.1-10.652,13.274-29.098,2.622-41.198l-21.317-24.214
	L304.727,210.239z"/>
<circle style="fill:#FFCB47;" cx="256.004" cy="317.245" r="187.044"/>
<path style="fill:#E58B25;" d="M254.538,504.279C151.9,503.498,68.954,420.068,68.954,317.245S151.9,130.992,254.538,130.211
	c-61.57,1.295-111.26,84.54-111.26,187.034S192.968,502.984,254.538,504.279z"/>
<g>
	<path style="fill:#FF9A47;" d="M131.147,336.196l46.011,79.699l-30.616,53.04c-42.188-30.492-71.149-78.158-76.647-132.74
		L131.147,336.196L131.147,336.196z"/>
	<path style="fill:#FF9A47;" d="M131.147,298.294H69.895c5.498-54.582,34.459-102.247,76.647-132.74l30.616,53.04L131.147,298.294z"
		/>
	<path style="fill:#FF9A47;" d="M209.983,199.644l-30.636-53.061c23.391-10.524,49.341-16.382,76.657-16.382
		c27.306,0,53.256,5.858,76.647,16.382l-30.636,53.061H209.983z"/>
	<path style="fill:#FF9A47;" d="M302.014,434.846l30.636,53.061c-23.391,10.524-49.341,16.382-76.647,16.382
		c-27.317,0-53.266-5.858-76.657-16.382l30.636-53.061H302.014z"/>
	<polygon style="fill:#FF9A47;" points="302.014,237.546 348.036,317.245 302.014,396.944 209.983,396.944 163.972,317.245 
		209.983,237.546 	"/>
	<path style="fill:#FF9A47;" d="M380.861,336.196h61.241c-5.498,54.582-34.449,102.237-76.637,132.74l-30.626-53.04L380.861,336.196
		z"/>
	<path style="fill:#FF9A47;" d="M380.861,298.294l-46.021-79.699l30.626-53.04c42.188,30.503,71.138,78.158,76.637,132.74H380.861z"
		/>
</g>
<g>
	<path style="fill:#E25D1B;" d="M146.706,363.153c3.916,25.775,11.058,49.413,20.678,69.679l-20.842,36.104
		c-42.188-30.492-71.149-78.158-76.647-132.74h61.252L146.706,363.153z"/>
	<path style="fill:#E25D1B;" d="M146.542,165.554l20.842,36.104c-9.619,20.267-16.762,43.904-20.678,69.679l-15.56,26.957H69.895
		C75.393,243.712,104.354,196.047,146.542,165.554z"/>
	<path style="fill:#E25D1B;" d="M254.472,504.279c-0.504,0-1.017-0.01-1.531-0.021c-0.637,0-1.285-0.021-1.922-0.041h-0.216
		c-0.617-0.021-1.233-0.031-1.85-0.062c-0.555-0.021-1.12-0.041-1.675-0.072c-0.812-0.031-1.624-0.072-2.446-0.123
		c-0.504-0.021-1.017-0.051-1.531-0.092c-22.661-1.521-44.223-7.081-63.955-15.96l10.853-18.787
		C208.328,490.795,230.496,503.744,254.472,504.279z"/>
	<path style="fill:#E25D1B;" d="M190.199,165.369l-10.853-18.787c19.732-8.879,41.294-14.439,63.955-15.96
		c0.514-0.041,1.028-0.072,1.531-0.092c0.822-0.051,1.634-0.092,2.446-0.123c0.555-0.031,1.12-0.051,1.675-0.072
		c0.617-0.031,1.233-0.041,1.85-0.062h0.216c0.637-0.021,1.285-0.041,1.922-0.041c0.514-0.01,1.028-0.021,1.531-0.021
		C230.496,130.746,208.328,143.695,190.199,165.369z"/>
</g>
<g>
	<path style="fill:#262B3B;" d="M212.633,79.253c-4.258,0-7.708-3.451-7.708-7.708V54.746c0-4.257,3.45-7.708,7.708-7.708
		c4.258,0,7.708,3.451,7.708,7.708v16.799C220.341,75.802,216.891,79.253,212.633,79.253z"/>
	<path style="fill:#262B3B;" d="M299.373,79.253c-4.258,0-7.708-3.451-7.708-7.708V54.746c0-4.257,3.45-7.708,7.708-7.708
		c4.258,0,7.708,3.451,7.708,7.708v16.799C307.081,75.802,303.631,79.253,299.373,79.253z"/>
</g>
<path style="fill:#E25D1B;" d="M256.001,512c-107.389,0-194.756-87.367-194.756-194.755c0-107.389,87.367-194.755,194.756-194.755
	c107.388,0,194.755,87.367,194.755,194.755C450.756,424.634,363.39,512,256.001,512z M256.001,137.906
	c-98.889,0-179.34,80.452-179.34,179.339s80.452,179.339,179.34,179.339S435.34,416.134,435.34,317.245
	C435.34,218.357,354.889,137.906,256.001,137.906z"/>
<g>
</g>
<g>
</g>
<g>
</g>
<g>
</g>
<g>
</g>
<g>
</g>
<g>
</g>
<g>
</g>
<g>
</g>
<g>
</g>
<g>
</g>
<g>
</g>
<g>
</g>
<g>
</g>
<g>
</g>
</svg>
